<svg id="Layer_1" data-name="Layer 1" xmlns="http://www.w3.org/2000/svg" xmlns:xlink="http://www.w3.org/1999/xlink" viewBox="0 0 240 56.37"><defs><style>.cls-1{fill:#fff;}.cls-1,.cls-3,.cls-5,.cls-7{fill-rule:evenodd;}.cls-2{mask:url(#mask);}.cls-3{fill:#ffc24f;}.cls-4{mask:url(#mask-2-2);}.cls-5{fill:#404041;}.cls-6{mask:url(#mask-3);}.cls-7{fill:#414141;}.cls-8{mask:url(#mask-4-2);}.cls-9{mask:url(#mask-5);}</style><mask id="mask" x="16.24" y="7.14" width="31.81" height="9.92" maskUnits="userSpaceOnUse"><g id="mask-2"><polygon id="path-1" class="cls-1" points="16.24 7.14 48.05 7.14 48.05 17.06 16.24 17.06 16.24 7.14"/></g></mask><mask id="mask-2-2" x="12" y="15.4" width="40.3" height="34.39" maskUnits="userSpaceOnUse"><g id="mask-4"><polygon id="path-3" class="cls-1" points="12 15.4 52.3 15.4 52.3 49.79 12 49.79 12 15.4"/></g></mask><mask id="mask-3" x="211.46" y="21.87" width="14.85" height="19.97" maskUnits="userSpaceOnUse"><g id="mask-6"><polygon id="path-5" class="cls-1" points="211.46 21.87 226.31 21.87 226.31 41.84 211.46 41.84 211.46 21.87"/></g></mask><mask id="mask-4-2" x="92.73" y="22.86" width="14.61" height="18.98" maskUnits="userSpaceOnUse"><g id="mask-8"><polygon id="path-7" class="cls-1" points="92.73 22.86 107.34 22.86 107.34 41.84 92.73 41.84 92.73 22.86"/></g></mask><mask id="mask-5" x="66.34" y="21.87" width="159.96" height="19.97" maskUnits="userSpaceOnUse"><g id="mask-10"><polygon id="path-9" class="cls-1" points="66.34 41.84 226.31 41.84 226.31 21.87 66.34 21.87 66.34 41.84"/></g></mask></defs><title>logo-menu</title><g id="Group-7"><g id="Group-3"><g class="cls-2"><path id="Fill-1" class="cls-3" d="M32.15,11.85a17.74,17.74,0,0,1,12.58,5.21l3.32-3.32a22.46,22.46,0,0,0-31.81,0l3.33,3.32a17.74,17.74,0,0,1,12.58-5.21"/></g></g><g id="Group-6"><g class="cls-4"><path id="Fill-4" class="cls-5" d="M46.39,15.4l-3.33,3.33a15.44,15.44,0,1,1-21.82,0L17.91,15.4a20.15,20.15,0,1,0,28.48,0"/></g></g></g><g id="Group-20"><g class="cls-6"><path class="cls-7" d="M214.47,35a4.94,4.94,0,0,0,.37,2,3.34,3.34,0,0,0,1,1.27,4.57,4.57,0,0,0,1.54.73,9.15,9.15,0,0,0,2.08.22,6,6,0,0,0,1.87-.25,3.73,3.73,0,0,0,1.26-.66,2.38,2.38,0,0,0,.7-.92,3.56,3.56,0,0,0,.21-1.19,2.68,2.68,0,0,0-.5-1.76,2.91,2.91,0,0,0-1.08-.74c-.68-.25-1.66-.48-2.56-.7l-3.34-.87a7.16,7.16,0,0,1-2-.85,4.78,4.78,0,0,1-1.3-1.16A4.31,4.31,0,0,1,212,28.8a5.09,5.09,0,0,1-.2-1.4,4.13,4.13,0,0,1,.61-2.3A5.37,5.37,0,0,1,214,23.34a9.8,9.8,0,0,1,2.25-1.1,10.22,10.22,0,0,1,5.37,0A7.24,7.24,0,0,1,224,23.4a5.59,5.59,0,0,1,1.6,1.91,5.71,5.71,0,0,1,.59,2.64h-2.74a3.23,3.23,0,0,0-1.26-2.61,7.67,7.67,0,0,0-4.27-.71,3,3,0,0,0-2.71,2.64,2.07,2.07,0,0,0,.63,1.59,10,10,0,0,0,2.49,1.1c.49.13,2.62.77,3.2.91,3.29.78,4.19,2.16,4.6,3.23a7.23,7.23,0,0,1-.4,4.48,5.89,5.89,0,0,1-3.83,3A11.8,11.8,0,0,1,216,41.4a7.1,7.1,0,0,1-3.82-3.16,7.7,7.7,0,0,1-.74-3.2Z"/></g><path class="cls-7" d="M199.58,31.42H194V25.24h5.56a3.09,3.09,0,1,1,0,6.18Zm6-3.09a6,6,0,0,0-5.95-5.95H191.3V41.43H194V34.27h4.35l4.26,7.16h2.9l-4.38-7.37a6,6,0,0,0,4.38-5.73Z"/><g id="Group-8"><g class="cls-8"><path id="Fill-6" class="cls-7" d="M104.44,34.42a4.51,4.51,0,0,1-.34,1.75,4.24,4.24,0,0,1-.94,1.43,4.46,4.46,0,0,1-1.44,1,4.38,4.38,0,0,1-4.8-1A4.24,4.24,0,0,1,96,36.17a4.51,4.51,0,0,1-.34-1.75V22.86H92.73V34.42a7.56,7.56,0,0,0,.55,2.84,6.73,6.73,0,0,0,1.57,2.36,7.3,7.3,0,0,0,2.38,1.64,7.09,7.09,0,0,0,2.8.58,7.18,7.18,0,0,0,2.84-.58,7.28,7.28,0,0,0,2.34-1.62,6.77,6.77,0,0,0,1.59-2.38,7.55,7.55,0,0,0,.54-2.84V22.86h-2.9Z"/></g></g><polygon id="Fill-9" class="cls-7" points="114.61 25.79 121.32 25.79 121.32 41.43 124.25 41.43 124.25 25.79 130.94 25.79 130.94 22.86 114.61 22.86 114.61 25.79"/><polygon id="Fill-11" class="cls-7" points="141.08 22.86 138.18 22.86 138.18 41.43 150.57 41.43 150.57 38.53 141.08 38.53 141.08 22.86"/><g class="cls-9"><polygon id="Fill-13" class="cls-7" points="158.38 41.43 161.45 41.43 161.45 22.36 158.38 22.36 158.38 41.43"/></g><g class="cls-9"><polygon id="Fill-15" class="cls-7" points="170.48 33.36 183.16 33.36 183.16 30.45 170.48 30.45 170.48 33.36"/></g><g class="cls-9"><polygon id="Fill-16" class="cls-7" points="170.48 39.7 173.38 39.7 173.38 24.11 170.48 24.11 170.48 39.7"/></g><g class="cls-9"><polygon id="Fill-17" class="cls-7" points="170.48 25.28 183.16 25.28 183.16 22.38 170.48 22.38 170.48 25.28"/></g><g class="cls-9"><polygon id="Fill-18" class="cls-7" points="170.48 41.43 183.16 41.43 183.16 38.53 170.48 38.53 170.48 41.43"/></g><g class="cls-9"><path id="Fill-19" class="cls-5" d="M76,38.56a6.35,6.35,0,0,1-3.31-.9,6.74,6.74,0,0,1-2.44-2.45,6.7,6.7,0,0,1,0-6.71,6.74,6.74,0,0,1,2.44-2.45,6.56,6.56,0,0,1,6.63,0,6.74,6.74,0,0,1,2.42,2.44,6.5,6.5,0,0,1,.89,3.36,6.63,6.63,0,0,1-.89,3.37,6.74,6.74,0,0,1-2.42,2.44,6.39,6.39,0,0,1-3.32.9m4.83-15.1a9.6,9.6,0,0,0-9.65,0,9.75,9.75,0,0,0,0,16.79,9.6,9.6,0,0,0,9.65,0,9.75,9.75,0,0,0,0-16.79"/></g></g></svg>