<svg xmlns="http://www.w3.org/2000/svg" width="66.31" height="59.585" viewBox="0 0 66.31 59.585">
  <g id="Group_20" data-name="Group 20" transform="translate(-954.699 -662.472)">
    <path id="Path_16" data-name="Path 16" d="M1000.4,662.472H975.307a8.058,8.058,0,0,0-6.981,4.031l-12.547,21.732a8.055,8.055,0,0,0,0,8.061l12.547,21.732a8.056,8.056,0,0,0,6.981,4.03H1000.4a8.055,8.055,0,0,0,6.979-4.03l12.548-21.732a8.064,8.064,0,0,0,0-8.061L1007.38,666.5A8.057,8.057,0,0,0,1000.4,662.472Z" transform="translate(0)" fill="#d82664"/>
    <g id="Group_19" data-name="Group 19" transform="translate(968.311 682.42)">
      <g id="Group_17" data-name="Group 17" transform="translate(16.186 6.823)">
        <g id="Group_16" data-name="Group 16">
          <path id="Path_17" data-name="Path 17" d="M979.322,677.608a1.118,1.118,0,0,1,.35.8,1.2,1.2,0,0,1-.285.912,1.022,1.022,0,0,1-.786.348,1.188,1.188,0,0,1-.527-.11,1.392,1.392,0,0,1-.434-.346l-.89.782,1.231,3.119a2.052,2.052,0,0,0,.236.436,2.943,2.943,0,0,0,.3.326,1.618,1.618,0,0,1,.179.19.3.3,0,0,1,.06.169.289.289,0,0,1-.142.272,1.081,1.081,0,0,1-.544.1h-1.424a1.2,1.2,0,0,1-.8-.233,1.835,1.835,0,0,1-.464-.778l-.646-1.827-.3.262-.285,1.292a.87.87,0,0,0-.028.272.587.587,0,0,0,.05.218.957.957,0,0,0,.125.184.46.46,0,0,1,.11.229.508.508,0,0,1-.015.108.281.281,0,0,1-.184.212,1.3,1.3,0,0,1-.452.059H971.2a.7.7,0,0,1-.357-.076.245.245,0,0,1-.136-.207.336.336,0,0,1,.024-.141.35.35,0,0,1,.13-.184c.063-.043.1-.069.115-.076a1.365,1.365,0,0,0,.27-.222.859.859,0,0,0,.164-.376l1.059-4.685a.865.865,0,0,0,.028-.272.485.485,0,0,0-.048-.2c-.028-.054-.067-.117-.114-.19a.469.469,0,0,1-.112-.229.7.7,0,0,1,.015-.119.292.292,0,0,1,.179-.2,1.272,1.272,0,0,1,.449-.06h2.555a.753.753,0,0,1,.356.071.235.235,0,0,1,.138.2.461.461,0,0,1-.024.141.432.432,0,0,1-.086.136.51.51,0,0,1-.1.088.237.237,0,0,0-.067.048,1.022,1.022,0,0,0-.27.218.9.9,0,0,0-.164.369l-.365,1.62,2.739-2.49a2.116,2.116,0,0,1,.492-.343,1.135,1.135,0,0,1,.484-.1A1.109,1.109,0,0,1,979.322,677.608Z" transform="translate(-970.702 -676.446)" fill="#fff"/>
          <path id="Path_18" data-name="Path 18" d="M979.3,679.49a.854.854,0,0,1,.332.653,1.448,1.448,0,0,1-.05.477l-.816,3.251a.941.941,0,0,0-.019.229.387.387,0,0,0,.067.222.764.764,0,0,0,.16.158.8.8,0,0,1,.115.125.148.148,0,0,1,.019.125.33.33,0,0,1-.207.207,1.4,1.4,0,0,1-.5.065h-2.478a.744.744,0,0,1-.419-.093.217.217,0,0,1-.1-.244.4.4,0,0,1,.216-.227.971.971,0,0,0,.259-.207.906.906,0,0,0,.164-.382l.767-3.141a.523.523,0,0,0,.024-.162.332.332,0,0,0-.065-.192.835.835,0,0,0-.171-.145.822.822,0,0,1-.162-.153.206.206,0,0,1-.021-.173c.036-.168.255-.315.661-.441a4.275,4.275,0,0,1,1.283-.19A1.523,1.523,0,0,1,979.3,679.49Zm.376-2.363a.969.969,0,0,1,.322.68,1.1,1.1,0,0,1-.115.553,1.084,1.084,0,0,1-.389.441,1.038,1.038,0,0,1-.583.168.987.987,0,0,1-.706-.277,1.027,1.027,0,0,1-.326-.689,1.128,1.128,0,0,1,.488-.979,1.08,1.08,0,0,1,1.309.1Z" transform="translate(-966.652 -676.849)" fill="#fff"/>
          <path id="Path_19" data-name="Path 19" d="M983.735,683.5a.164.164,0,0,0,.05.119.157.157,0,0,0,.11.043.257.257,0,0,0,.216-.114c.058-.076.1-.114.119-.114s.067.024.091.076a.458.458,0,0,1,.043.173.876.876,0,0,1-.19.6,1.641,1.641,0,0,1-.6.5,1.8,1.8,0,0,1-.836.2,2.123,2.123,0,0,1-.959-.207,1.256,1.256,0,0,1-.585-.544,1.72,1.72,0,0,1-1.436.75,1.887,1.887,0,0,1-.944-.251,1.992,1.992,0,0,1-.724-.711,2.219,2.219,0,0,1-.315-1.048,4.582,4.582,0,0,1,.268-1.866,3.285,3.285,0,0,1,.97-1.411,2.263,2.263,0,0,1,1.5-.538,2.641,2.641,0,0,1,.806.108,2.049,2.049,0,0,1,.622.326l.3-1.218a.52.52,0,0,0,.024-.162.338.338,0,0,0-.071-.2.9.9,0,0,0-.168-.153.985.985,0,0,1-.166-.153.187.187,0,0,1-.026-.173q.05-.251.659-.436a4.416,4.416,0,0,1,1.285-.184,1.55,1.55,0,0,1,.942.238.841.841,0,0,1,.335.654,1.465,1.465,0,0,1-.048.467l-1.264,5.108A.46.46,0,0,0,983.735,683.5Zm-2.363-3.327c-.21,0-.408.156-.594.467a3.891,3.891,0,0,0-.425,1.13,4.072,4.072,0,0,0-.106,1.2q.033.6.424.6a.283.283,0,0,0,.233-.115,1.063,1.063,0,0,0,.164-.374l.693-2.75A.606.606,0,0,0,981.372,680.173Z" transform="translate(-964.607 -676.794)" fill="#fff"/>
          <path id="Path_20" data-name="Path 20" d="M986.579,678.25a2.673,2.673,0,0,1,1.037.456.906.906,0,0,1,.391.663.712.712,0,0,1-.263.62,1.242,1.242,0,0,1-.819.238,1.58,1.58,0,0,1-.933-.272.874.874,0,0,1-.415-.683A.937.937,0,0,1,985.6,679a1.306,1.306,0,0,0-.35-.054.708.708,0,0,0-.443.13.379.379,0,0,0-.147.369.609.609,0,0,0,.309.479,7.079,7.079,0,0,0,.94.49,10.047,10.047,0,0,1,.922.44,2.252,2.252,0,0,1,.627.506,1.183,1.183,0,0,1,.285.717,2.092,2.092,0,0,1-.026.326,1.636,1.636,0,0,1-.9,1.153,4.282,4.282,0,0,1-2.063.423,5.789,5.789,0,0,1-2.331-.391,1.291,1.291,0,0,1-.914-1.076.828.828,0,0,1,.242-.706,1.064,1.064,0,0,1,.736-.24,1.446,1.446,0,0,1,.95.337,1.158,1.158,0,0,1,.434.86,1.425,1.425,0,0,1-.015.292,2.027,2.027,0,0,0,.5.065.67.67,0,0,0,.458-.153.491.491,0,0,0,.162-.423.6.6,0,0,0-.276-.43,5.062,5.062,0,0,0-.784-.428,7.721,7.721,0,0,1-.829-.43,2.161,2.161,0,0,1-.568-.5,1.241,1.241,0,0,1-.262-.719,1.549,1.549,0,0,1,.663-1.417,3.479,3.479,0,0,1,2.086-.529A6.675,6.675,0,0,1,986.579,678.25Z" transform="translate(-961.385 -675.783)" fill="#fff"/>
        </g>
      </g>
      <g id="Group_18" data-name="Group 18">
        <path id="Path_21" data-name="Path 21" d="M977.619,676.659a.572.572,0,0,0-.465-.544l-4.745-1.482a2.47,2.47,0,0,1-4.743,0l-4.745,1.482a.572.572,0,0,0-.465.544c.015.445.114,2.562.114,2.562a.433.433,0,0,0,.27.41c.281.1,1.749.566,1.749.566s.225.1.3-.212a6.061,6.061,0,0,1,.453-1,48,48,0,0,0-.607,4.826c-.043,1.583-.186,3.458.352,3.868s1.581.482,2.2,1.836a4.557,4.557,0,0,1,.41,1.342c0,.268.579.847,2.342.875,1.765-.028,2.344-.607,2.344-.875a4.554,4.554,0,0,1,.41-1.342c.62-1.354,1.667-1.425,2.2-1.836s.395-2.285.352-3.868a48.009,48.009,0,0,0-.607-4.826,6.064,6.064,0,0,1,.452,1c.071.311.3.212.3.212s1.467-.467,1.749-.566a.433.433,0,0,0,.27-.41S977.6,677.1,977.619,676.659ZM973,676.171a.6.6,0,0,1-.806.251.641.641,0,0,1-.061-.037.556.556,0,0,1,.043.047.6.6,0,0,1-.948.726.4.4,0,0,1-.039-.06.541.541,0,0,1,.019.06.6.6,0,0,1-1.166.263c-.006-.024-.008-.047-.011-.071,0,.021,0,.041-.007.061a.6.6,0,0,1-1.167-.251c.005-.022.013-.045.021-.067l-.034.052a.6.6,0,1,1-.955-.717.448.448,0,0,1,.047-.054l-.052.033a.6.6,0,0,1-.566-1.052.5.5,0,0,1,.08-.035c-.073.086-.026.344.115.609s.331.445.443.432l-.009.006c-.024.112.123.32.359.5s.488.265.585.207l-.007.009c.026.112.248.24.536.3s.553.036.616-.058l0,.013c.069.089.326.112.615.047s.516-.2.534-.311l0,.013c.1.052.343-.034.577-.214s.385-.4.356-.506l.007.009c.114.006.3-.175.434-.436s.184-.523.11-.611a.607.607,0,0,1,.08.035A.6.6,0,0,1,973,676.171Z" transform="translate(-961.624 -671.937)" fill="#fff"/>
        <path id="Path_22" data-name="Path 22" d="M967.677,674.265a.54.54,0,1,0-.538-.54A.54.54,0,0,0,967.677,674.265Z" transform="translate(-957.587 -673.185)" fill="#fff"/>
        <circle id="Ellipse_1" data-name="Ellipse 1" cx="0.83" cy="0.83" r="0.83" transform="translate(11.37 0.481)" fill="#fff"/>
        <path id="Path_23" data-name="Path 23" d="M963.069,678.733a1.06,1.06,0,1,0,1.059,1.061A1.061,1.061,0,0,0,963.069,678.733Z" transform="translate(-962.009 -668.402)" fill="#fff"/>
        <path id="Path_24" data-name="Path 24" d="M964.671,682.991a.385.385,0,1,0,.385.385A.386.386,0,0,0,964.671,682.991Z" transform="translate(-960.046 -664.732)" fill="#fff"/>
        <path id="Path_25" data-name="Path 25" d="M969.659,682.518a.735.735,0,1,0,.734.734A.736.736,0,0,0,969.659,682.518Z" transform="translate(-956.049 -665.139)" fill="#fff"/>
        <path id="Path_26" data-name="Path 26" d="M971.039,677.939a.508.508,0,1,0,.506.508A.508.508,0,0,0,971.039,677.939Z" transform="translate(-954.663 -669.087)" fill="#fff"/>
        <path id="Path_27" data-name="Path 27" d="M967.647,675.569l.014.009-.008-.009Z" transform="translate(-957.149 -671.13)" fill="#fff"/>
        <path id="Path_28" data-name="Path 28" d="M967.142,675.95l.009.014,0-.012Z" transform="translate(-957.584 -670.802)" fill="#fff"/>
        <path id="Path_29" data-name="Path 29" d="M966.524,676.083l0,.016,0-.012Z" transform="translate(-958.117 -670.686)" fill="#fff"/>
        <path id="Path_30" data-name="Path 30" d="M965.909,675.945l0,.016.006-.01Z" transform="translate(-958.651 -670.805)" fill="#fff"/>
        <path id="Path_31" data-name="Path 31" d="M965.41,675.561l-.01.012.01-.006Z" transform="translate(-959.087 -671.136)" fill="#fff"/>
      </g>
    </g>
  </g>
</svg>
