<svg xmlns="http://www.w3.org/2000/svg" width="22.467" height="19.628" viewBox="0 0 22.467 19.628">
  <path id="Path_137" data-name="Path 137" d="M1410.111,114.2q2.226,2.12,4.456,4.234c-.7.842-1.393,1.688-2.1,2.546l-.1.127-.555-.35-1.53-.963v12.038h-11.12V119.863l-1.486.832-.64.359-1.256-1.511-.948-1.142.427-.4c.917-.862,1.824-1.715,2.726-2.573.362-.345.712-.7,1.062-1.057l.171-.173h1.289a5.313,5.313,0,0,0,.74,1.447,4.186,4.186,0,0,0,1.189,1.159,4.058,4.058,0,0,0,2.262.7,4.015,4.015,0,0,0,2.035-.56,4.16,4.16,0,0,0,1.734-1.8,5.475,5.475,0,0,0,.422-.952h1.224m.482-1h-2.479a4.614,4.614,0,0,1-.535,1.488,3.163,3.163,0,0,1-1.333,1.386,3,3,0,0,1-3.256-.1,3.207,3.207,0,0,1-.923-.895,4.544,4.544,0,0,1-.789-1.88H1398.8c-.5.5-.991,1.016-1.5,1.505-1.263,1.2-2.537,2.394-3.833,3.614l3.335,4.014,1.365-.765v11.26h13.116V121.6l1.3.818c.994-1.208,1.961-2.387,2.934-3.562a5.636,5.636,0,0,1,.418-.414v-.094q-2.578-2.447-5.154-4.9a1.728,1.728,0,0,1-.182-.253Z" transform="translate(-1393.463 -113.198)" fill="#fff"/>
</svg>
