<svg xmlns="http://www.w3.org/2000/svg" xmlns:xlink="http://www.w3.org/1999/xlink" width="30.514" height="20.059" viewBox="0 0 30.514 20.059">
  <defs>
    <linearGradient id="linear-gradient" x1="1" y1="0.5" x2="0" y2="0.5" gradientUnits="objectBoundingBox">
      <stop offset="0.019" stop-color="#5d62c8"/>
      <stop offset="0.973" stop-color="#38b8bc"/>
    </linearGradient>
  </defs>
  <path id="Path_284" data-name="Path 284" d="M460.206,205.527h1.678a3.353,3.353,0,0,0,6.666,0H479.4a3.353,3.353,0,0,0,6.666,0h3.54a.561.561,0,0,0,.559-.563V189.02a.561.561,0,0,0-.559-.563H470.2a.562.562,0,0,0-.56.563v3.158H464.9a.56.56,0,0,0-.459.242l-3.059,4.409-1.2,1.689-.437.625a.572.572,0,0,0-.1.321v5.485a.566.566,0,0,0,.156.407A.555.555,0,0,0,460.206,205.527Zm5,1.689a2.252,2.252,0,1,1,2.237-2.252,2.272,2.272,0,0,1-2.237,2.28Zm17.516,0a2.252,2.252,0,1,1,2.237-2.252,2.272,2.272,0,0,1-2.237,2.28Zm6.314-17.633v10.089H473.852a.563.563,0,0,0,0,1.126h15.184v3.6h-2.98a3.353,3.353,0,0,0-6.667,0H470.76V192.145H474.8a.563.563,0,0,0,0-1.126H470.76v-1.435ZM465.194,193.3h4.474v11.1h-1.118a3.353,3.353,0,0,0-6.666,0h-1.119v-4.757l.168-.242h6.823a.561.561,0,0,0,.559-.563v-4.166a.561.561,0,0,0-.559-.563h-3.132Zm-1.353,1.943H467.2v3.04h-5.487Z" transform="translate(-459.652 -188.457)" fill="url(#linear-gradient)"/>
</svg>
