<svg xmlns="http://www.w3.org/2000/svg" width="14.668" height="16" viewBox="0 0 14.668 16">
  <path id="Path_371" data-name="Path 371" d="M1455.333,629.94h4v-1.167a.166.166,0,0,0-.167-.167H1455.5a.166.166,0,0,0-.167.167Zm7.334.667H1452v12a.667.667,0,0,0,.667.666H1462a.667.667,0,0,0,.667-.666ZM1456,632.94a.333.333,0,0,0-.667,0v8a.333.333,0,0,0,.667,0Zm3.333,0a.333.333,0,1,0-.666,0v8a.333.333,0,1,0,.666,0Zm5.334-3v.667h-1.334v12A1.333,1.333,0,0,1,1462,643.94h-9.333a1.333,1.333,0,0,1-1.334-1.333v-12H1450v-.667h4.667v-1.333a.667.667,0,0,1,.666-.667h4a.667.667,0,0,1,.667.667v1.333Z" transform="translate(-1450.001 -627.94)" fill="#787878" fill-rule="evenodd"/>
</svg>
