<svg xmlns="http://www.w3.org/2000/svg" width="15.854" height="15" viewBox="0 0 15.854 15">
  <path id="icons8-money-box" d="M7.687,2.563A2.59,2.59,0,0,0,5.1,5.147a2.56,2.56,0,0,0,.258,1.12l.614-.3a1.858,1.858,0,0,1-.183-.819,1.9,1.9,0,1,1,3.791,0h.689A2.59,2.59,0,0,0,7.687,2.563ZM14.128,4.07a.4.4,0,0,0-.043.011l-.022.011a3.806,3.806,0,0,0-2.51,1.928,8.907,8.907,0,0,0-1.885-.226,7.368,7.368,0,0,0-4.674,1.54A4.337,4.337,0,0,0,3.6,9.262a1.707,1.707,0,0,1-.409-.2,1.022,1.022,0,0,1-.506-.9.841.841,0,0,1,.463-.808.345.345,0,0,0-.14-.668.358.358,0,0,0-.129.032A1.542,1.542,0,0,0,2,8.152a1.776,1.776,0,0,0,.808,1.476,2.243,2.243,0,0,0,.592.291,6.335,6.335,0,0,0-.14,1.68,4.623,4.623,0,0,0,1.885,3.285h.011a.387.387,0,0,1,.1.1c.005.009.022-.012-.011.086-.1.318-.3.8-.3.8v.011a.937.937,0,0,0,.539,1.206v.011l1.109.409a.948.948,0,0,0,1.217-.539s.137-.388.258-.711a.239.239,0,0,1,.043-.075c.013,0,.015.005.043.011a6.478,6.478,0,0,0,1.519.183,13.766,13.766,0,0,0,1.529-.1.642.642,0,0,1,.075,0c.005.009,0,.017.011.032s0,.005,0,.011c.11.33.244.637.248.646s.008.005.011.011a.933.933,0,0,0,1.2.528l1.109-.409v-.011a.935.935,0,0,0,.539-1.206l-.172-.463a.44.44,0,0,0-.032-.054s.011,0,.011,0-.047.018.065-.043a4.441,4.441,0,0,0,1.885-2,.616.616,0,0,1,.1-.162c.027-.026.043-.043.151-.043h.56a.91.91,0,0,0,.9-.9v-1.68a.909.909,0,0,0-.9-.9h-.56a.32.32,0,0,1-.118-.011,3.836,3.836,0,0,0-2.316-2.865,6.343,6.343,0,0,1,.517-2.2.345.345,0,0,0-.345-.474Zm-.539.969a5.68,5.68,0,0,0-.345,1.906.344.344,0,0,0,.237.323,3.079,3.079,0,0,1,2.111,2.488.757.757,0,0,0,.8.549h.56a.212.212,0,0,1,.215.215V12.2a.212.212,0,0,1-.215.215h-.56a.937.937,0,0,0-.625.226,1.079,1.079,0,0,0-.248.366A3.7,3.7,0,0,1,13.934,14.7a.808.808,0,0,0-.431.635.55.55,0,0,0,.075.312h-.011l.022.054.151.42a.246.246,0,0,1-.14.323l-1.109.42a.25.25,0,0,1-.323-.151V16.7s-.135-.308-.237-.614a.739.739,0,0,0-.291-.42.76.76,0,0,0-.485-.086,13.649,13.649,0,0,1-1.486.1,5.863,5.863,0,0,1-1.4-.172.728.728,0,0,0-.517.054.761.761,0,0,0-.323.452c-.118.318-.269.7-.269.7a.252.252,0,0,1-.323.151l-1.109-.42a.246.246,0,0,1-.14-.323c.005-.015.194-.477.312-.84a.813.813,0,0,0-.054-.657.967.967,0,0,0-.269-.28,4.005,4.005,0,0,1-1.626-2.779A4.211,4.211,0,0,1,5.414,7.872,6.629,6.629,0,0,1,9.669,6.483a8.235,8.235,0,0,1,1.971.237.346.346,0,0,0,.4-.194A2.775,2.775,0,0,1,13.589,5.04Zm.291,4.6a.655.655,0,0,0-.657.657.657.657,0,1,0,1.314,0A.656.656,0,0,0,13.88,9.639Z" transform="translate(-2 -2.563)" fill="#787878"/>
</svg>
