<svg xmlns="http://www.w3.org/2000/svg" width="31.588" height="28" viewBox="0 0 31.588 28">
  <g id="Group_735" data-name="Group 735" transform="translate(-1036.517 -116.752)">
    <path id="Path_236" data-name="Path 236" d="M844.105,73.7H818.442l-.986-3.948h-4.939v1.317h3.877c.379,1.534.756,3.053,1.125,4.574q1.781,7.327,3.549,14.659c.083.349.187.516.588.516q8.455-.023,16.913-.015a1.264,1.264,0,0,0,.2-.041c.5-1.581,1-3.2,1.513-4.821q1.829-5.818,3.658-11.636a2.664,2.664,0,0,1,.162-.341Zm-6.34,15.761H822.257l-3.5-14.416h23.452Z" transform="translate(224 47)" fill="#2d2d2d"/>
    <path id="Path_237" data-name="Path 237" d="M824.984,82.516a1.972,1.972,0,1,1-1.99,1.988A1.932,1.932,0,0,1,824.984,82.516Zm-.019,2.661a.688.688,0,1,0-.686-.688A.688.688,0,0,0,824.965,85.177Z" transform="translate(233.268 58.291)" fill="#2d2d2d"/>
    <path id="Path_238" data-name="Path 238" d="M820.807,82.516a1.973,1.973,0,1,1-2,1.973A1.934,1.934,0,0,1,820.807,82.516Zm-.032,2.661a.688.688,0,1,0-.688-.688A.688.688,0,0,0,820.775,85.177Z" transform="translate(229.562 58.291)" fill="#2d2d2d"/>
  </g>
</svg>
