<?xml version="1.0" encoding="utf-8"?>
<!-- Generator: Adobe Illustrator 23.1.1, SVG Export Plug-In . SVG Version: 6.00 Build 0)  -->
<svg version="1.1" id="Layer_1" xmlns="http://www.w3.org/2000/svg" xmlns:xlink="http://www.w3.org/1999/xlink" x="0px" y="0px"
	 viewBox="0 0 50 50" style="enable-background:new 0 0 50 50;" xml:space="preserve">
<style type="text/css">
	.st0{fill:#9A6EF7;}
</style>
<path class="st0" d="M42.9,8.6C42.8,8.6,42.8,8.6,42.9,8.6c-0.4,0.1-0.6,0.3-0.7,0.5L21.7,40.8l-14-12.7c-0.2-0.3-0.7-0.4-1-0.3
	C6.3,27.9,6,28.2,6,28.6c-0.1,0.4,0.1,0.8,0.5,1l14.9,13.5c0.2,0.2,0.5,0.3,0.8,0.2s0.5-0.2,0.7-0.5L44,10.1c0.2-0.3,0.2-0.8,0-1.1
	C43.7,8.7,43.3,8.6,42.9,8.6z"/>
</svg>
