<svg xmlns="http://www.w3.org/2000/svg" width="88.004" height="14.274" viewBox="0 0 88.004 14.274">
  <g id="Group_1050" data-name="Group 1050" transform="translate(0 0.25)">
    <path id="Path_287" data-name="Path 287" d="M418.232,2449.167l2.238,4.534,5,.727-3.621,3.529.855,4.984-4.476-2.353-4.476,2.353.855-4.984-3.621-3.529,5-.727Z" transform="translate(-410.99 -2449.167)" fill="#5d6bc6"/>
    <path id="Path_288" data-name="Path 288" d="M433.785,2449.167l2.238,4.534,5,.727-3.621,3.529.855,4.984-4.476-2.353-4.476,2.353.855-4.984-3.621-3.529,5-.727Z" transform="translate(-408.226 -2449.167)" fill="#5d6bc6"/>
    <path id="Path_289" data-name="Path 289" d="M449.338,2449.167l2.238,4.534,5,.727-3.621,3.529.855,4.984-4.476-2.353-4.476,2.353.855-4.984-3.621-3.529,5-.727Z" transform="translate(-405.461 -2449.167)" fill="#5d6bc6"/>
    <path id="Path_290" data-name="Path 290" d="M464.891,2449.167l2.238,4.534,5,.727-3.621,3.529.855,4.984-4.476-2.353-4.476,2.353.855-4.984-3.621-3.529,5-.727Z" transform="translate(-402.697 -2449.167)" fill="#5d6bc6"/>
    <path id="Path_291" data-name="Path 291" stroke="#c5c8cb" d="M480.445,2449.167l2.238,4.534,5,.727-3.621,3.529.855,4.984-4.476-2.353-4.476,2.353.855-4.984-3.621-3.529,5-.727Z" fill="none" transform="translate(-399.932 -2449.167)" stroke-linecap="round" stroke-linejoin="round" stroke-width="0.5" opacity="0.5"/>
  </g>
</svg>
