<svg xmlns="http://www.w3.org/2000/svg" width="27.748" height="28" viewBox="0 0 27.748 28">
  <path id="Path_283" data-name="Path 283" d="M875.307,96.65H847.559l.214-.816a17.908,17.908,0,0,1,9.522-11.864,11.437,11.437,0,0,1-3.618-5.611,7.964,7.964,0,0,1,6.378-9.606,7.988,7.988,0,0,1,9.38,7.329,7.792,7.792,0,0,1-1.888,5.725c-.544.67-1.144,1.307-1.725,1.925-.074.077-.146.154-.219.233a18.517,18.517,0,0,1,9.49,11.869Zm-26.043-1.3H873.6a17.237,17.237,0,0,0-9.348-10.622l-.77-.386.582-.635c.269-.295.541-.583.809-.867.591-.626,1.147-1.218,1.661-1.851a6.528,6.528,0,0,0,1.6-4.788,6.691,6.691,0,0,0-7.89-6.16,6.667,6.667,0,0,0-5.309,8,10.174,10.174,0,0,0,3.344,5.074l1.3,1.195-.872.412A16.8,16.8,0,0,0,849.264,95.349Z" transform="translate(-847.559 -68.65)" fill="#2d2d2d"/>
</svg>
