<?xml version="1.0" encoding="utf-8"?>
<!-- Generator: Adobe Illustrator 23.0.6, SVG Export Plug-In . SVG Version: 6.00 Build 0)  -->
<svg version="1.1" id="Layer_1" xmlns="http://www.w3.org/2000/svg" xmlns:xlink="http://www.w3.org/1999/xlink" x="0px" y="0px"
	 viewBox="0 0 30 30" style="enable-background:new 0 0 30 30;" xml:space="preserve">
<path d="M22,26c0.2,0,0.4-0.1,0.6-0.2c0,0,4.4-3.4,4.4-9.8V6c0-1.1-0.9-2-2-2h-6c-1.1,0-2,0.9-2,2v8c0,1.1,0.9,2,2,2h4
	c0,1.8-0.1,5.6-1.9,8.4c-0.3,0.4-0.2,1.1,0.2,1.4C21.6,25.9,21.8,26,22,26z M8,26c0.2,0,0.4-0.1,0.6-0.2c0,0,4.4-3.4,4.4-9.8V6
	c0-1.1-0.9-2-2-2H5C3.9,4,3,4.9,3,6v8c0,1.1,0.9,2,2,2h4c0,1.8-0.1,5.6-1.9,8.4c-0.3,0.4-0.2,1.1,0.2,1.4C7.6,25.9,7.8,26,8,26z"/>
</svg>
